<?xml version="1.0" standalone="no"?>
<!DOCTYPE svg PUBLIC "-//W3C//DTD SVG 20010904//EN"
 "http://www.w3.org/TR/2001/REC-SVG-20010904/DTD/svg10.dtd">
<svg version="1.0" xmlns="http://www.w3.org/2000/svg"
 width="674.000000pt" height="303.000000pt" viewBox="0 0 674.000000 303.000000"
 preserveAspectRatio="xMidYMid meet">

<g transform="translate(0.000000,303.000000) scale(0.100000,-0.100000)"
fill="#000000" stroke="none">
<path d="M4082 3000 c-117 -16 -316 -61 -382 -86 -104 -39 -260 -125 -260
-143 0 -3 44 -5 97 -3 58 2 94 0 88 -6 -5 -5 -50 -35 -100 -67 -170 -109 -282
-217 -359 -345 -69 -115 -70 -110 13 -110 45 0 89 7 121 19 27 11 50 16 50 13
-1 -6 -89 -47 -172 -80 -34 -14 -185 -157 -204 -194 -22 -42 -18 -48 34 -48
26 0 72 -4 102 -8 l55 -7 -90 -6 c-49 -3 -137 -2 -195 2 -255 20 -419 18 -840
-10 -154 -10 -305 -41 -369 -75 -14 -8 -51 -26 -81 -41 -30 -14 -64 -31 -75
-38 -11 -6 -38 -23 -60 -36 -80 -49 -397 -296 -425 -332 -10 -13 -128 -67
-190 -87 -148 -48 -246 -50 -345 -9 -66 27 -100 59 -133 127 -25 51 -27 64
-27 176 1 111 3 125 28 176 48 99 125 149 272 180 68 14 157 21 360 26 149 4
275 10 280 14 6 3 30 9 55 12 103 14 278 96 379 179 134 109 186 235 157 377
-7 36 -16 89 -20 119 -9 71 -56 161 -106 204 -42 36 -168 103 -176 94 -8 -8
-24 -127 -24 -179 0 -100 17 -143 83 -212 34 -35 80 -74 102 -86 22 -13 42
-25 44 -26 2 -2 -6 -30 -18 -62 -24 -63 -76 -124 -149 -174 -48 -33 -200 -107
-234 -113 -12 -3 -51 -11 -87 -19 -42 -10 -148 -17 -296 -20 -126 -3 -273 -12
-325 -20 -296 -44 -440 -198 -440 -471 0 -151 42 -259 130 -338 81 -73 140
-92 290 -92 90 0 144 5 195 19 134 35 285 120 378 212 26 26 47 45 47 42 0 -3
-20 -42 -45 -87 -25 -45 -45 -85 -45 -89 0 -17 -155 -319 -188 -367 -70 -101
-107 -128 -212 -158 -69 -19 -195 -47 -237 -53 -117 -15 -194 -78 -292 -240
-58 -94 -221 -414 -221 -433 0 -8 110 -11 379 -11 l380 0 31 47 c32 47 37 60
47 123 4 27 0 39 -15 53 -24 22 -46 27 -154 34 l-87 6 32 58 c31 56 33 58 64
53 46 -9 477 -9 547 -1 55 6 181 55 216 83 8 6 35 22 59 34 53 26 281 179 432
288 189 137 305 241 354 315 9 15 21 27 25 27 11 0 -27 -98 -52 -133 -11 -15
-18 -31 -15 -33 3 -3 65 0 137 6 145 14 395 9 530 -10 47 -7 126 -25 175 -40
50 -15 101 -31 114 -35 22 -7 23 -5 17 20 -6 24 -27 54 -111 164 l-20 26 35
-25 c60 -43 179 -161 241 -240 33 -41 85 -106 117 -143 72 -87 132 -198 139
-260 5 -41 10 -50 37 -64 130 -67 304 -215 363 -309 l28 -44 363 0 362 0 -5
23 c-3 12 -10 45 -15 72 -13 59 -52 130 -81 145 -11 6 -74 13 -141 16 -110 4
-142 11 -172 35 -6 5 -37 22 -69 39 -96 49 -174 116 -193 166 -27 71 -15 172
30 258 20 38 46 82 57 98 21 28 131 268 124 268 -2 0 7 32 21 72 13 39 24 83
25 97 1 25 1 25 10 -4 10 -34 2 -112 -17 -169 -8 -21 -14 -43 -14 -49 0 -23
60 48 91 107 17 33 37 68 44 76 7 8 20 38 30 65 10 28 22 55 25 60 21 31 40
117 40 185 0 61 -6 94 -31 161 -17 46 -32 94 -35 105 -2 12 -16 48 -30 80 -14
33 -28 67 -30 78 -2 10 -13 39 -26 64 -12 26 -21 54 -21 63 1 11 -33 40 -92
80 -52 35 -89 66 -84 67 5 2 40 -8 77 -23 37 -15 100 -38 139 -52 40 -13 85
-31 100 -38 16 -8 38 -15 50 -15 12 0 24 -4 27 -9 3 -4 25 -14 49 -20 43 -13
44 -13 61 -82 14 -53 23 -70 40 -74 11 -4 47 -18 79 -31 l58 -25 94 83 c91 81
93 84 94 128 l0 45 -34 -37 c-18 -20 -36 -33 -40 -30 -8 8 -101 61 -163 94
-48 25 -48 28 1 114 30 52 34 55 62 49 17 -3 55 -10 86 -15 84 -12 102 -24 97
-66 -2 -19 0 -34 4 -34 4 0 25 15 45 34 21 18 51 36 66 40 34 8 53 47 62 131
l7 60 -179 58 c-98 32 -185 62 -192 66 -7 5 -16 23 -20 41 -8 39 -25 50 -170
111 -55 23 -105 46 -110 53 -5 6 -13 46 -19 89 -6 43 -13 82 -17 85 -10 10
-431 12 -503 2z m658 -338 c37 -18 49 -44 30 -67 -10 -12 -23 -5 -78 42 -37
31 -68 57 -70 59 -11 9 89 -20 118 -34z"/>
<path d="M5636 2624 c-25 -53 -46 -106 -46 -118 0 -11 11 -43 23 -71 l23 -49
-27 -23 c-48 -41 -50 -121 -3 -165 20 -19 24 -33 24 -80 l0 -58 55 0 55 0 0
58 c0 45 4 60 19 69 26 16 44 77 36 120 -3 19 -18 46 -32 59 l-26 24 27 59 28
58 -51 106 c-28 59 -53 107 -55 107 -3 0 -25 -43 -50 -96z"/>
<path d="M5590 1993 c-130 -21 -295 -58 -349 -79 -36 -14 -84 -32 -105 -40
-22 -9 -52 -24 -67 -35 -15 -10 -30 -19 -33 -19 -3 0 -30 -16 -60 -35 -51 -32
-153 -82 -186 -90 -8 -3 -44 -14 -80 -26 l-65 -22 0 -76 c0 -60 -7 -96 -34
-171 -18 -52 -44 -114 -58 -138 -14 -24 -23 -46 -20 -48 13 -13 98 25 156 68
110 82 280 159 531 240 l125 40 135 -7 c156 -8 177 -2 267 72 70 58 91 96 99
175 8 82 -6 127 -52 168 -32 28 -40 30 -107 29 -40 -1 -83 -4 -97 -6z"/>
<path d="M5715 1530 c-3 -5 -24 -15 -45 -21 l-40 -12 0 -184 c0 -101 -4 -182
-9 -179 -24 15 -192 25 -271 16 -105 -12 -112 -13 -195 -39 l-68 -21 -22 20
c-51 48 -122 2 -110 -71 6 -35 0 -47 -101 -196 -59 -87 -129 -191 -156 -231
l-49 -73 28 -50 c105 -194 385 -253 573 -121 50 34 139 142 140 168 0 6 -12
27 -27 47 -16 19 -50 70 -78 112 -27 43 -76 117 -108 164 -31 47 -66 100 -77
116 -11 17 -19 39 -18 50 7 48 336 71 459 32 57 -19 125 -53 134 -68 5 -7 12
-6 23 4 87 76 290 104 494 69 121 -20 126 -30 64 -116 -24 -34 -96 -139 -159
-234 -131 -195 -126 -174 -57 -268 107 -143 319 -189 490 -107 93 45 210 183
184 217 -5 7 -31 48 -59 91 -27 43 -62 92 -76 109 -14 17 -47 65 -73 106 -27
41 -58 89 -71 107 -17 25 -22 43 -19 82 2 43 -1 53 -19 66 -30 21 -67 19 -92
-5 -21 -20 -24 -20 -67 -6 -97 33 -194 48 -308 48 -63 -1 -129 -5 -147 -11
-17 -5 -34 -7 -37 -3 -3 3 -6 95 -6 204 0 181 -5 220 -25 188z m-705 -770 l0
-230 -166 0 -166 0 23 38 c12 20 43 66 69 102 25 36 84 122 131 192 46 70 90
128 97 128 9 0 12 -53 12 -230z m79 183 c17 -27 61 -94 98 -150 138 -206 159
-238 167 -250 6 -10 -29 -13 -158 -13 l-166 0 0 230 c0 258 4 268 59 183z
m1251 -183 l0 -230 -165 0 -165 0 24 38 c13 20 63 96 112 167 48 72 106 158
128 192 23 34 47 63 54 63 9 0 12 -52 12 -230z m80 178 c18 -29 36 -55 40 -58
4 -3 34 -45 66 -95 32 -49 60 -92 63 -95 8 -7 75 -110 90 -137 l12 -23 -166 0
-165 0 0 230 c0 259 4 270 60 178z"/>
<path d="M2357 900 c-166 -11 -183 -16 -250 -68 -33 -26 -79 -61 -103 -79 -34
-26 -46 -43 -58 -85 -58 -208 -77 -281 -74 -282 125 -87 330 -286 349 -340
l13 -36 328 0 328 0 -4 23 c-3 12 -8 36 -11 52 -4 17 -9 41 -12 55 -5 28 -36
82 -57 99 -19 16 -42 20 -184 33 l-123 12 -57 71 c-118 145 -139 186 -109 217
7 7 35 39 62 72 27 32 97 101 155 154 58 52 107 98 108 103 4 10 -127 10 -301
-1z"/>
</g>
</svg>
